<svg width="93" height="93" viewBox="0 0 93 93" fill="none" xmlns="http://www.w3.org/2000/svg">
<g filter="url(#filter0_d_44_6)">
<circle cx="46.5" cy="42.5" r="42" stroke="white"/>
<path d="M34.25 22.625C34.2503 22.3267 34.369 22.0408 34.5799 21.8299C34.7908 21.619 35.0767 21.5003 35.375 21.5H55.625C55.9233 21.5003 56.2092 21.619 56.4201 21.8299C56.631 22.0408 56.7497 22.3267 56.75 22.625V26.75H58.25V22.625C58.2492 21.9291 57.9724 21.2618 57.4803 20.7697C56.9882 20.2776 56.3209 20.0008 55.625 20H35.375C34.6791 20.0008 34.0118 20.2776 33.5197 20.7697C33.0276 21.2618 32.7508 21.9291 32.75 22.625V26.75H34.25V22.625Z" fill="white"/>
<path d="M56.75 59H34.25V56.75H32.75V62.375C32.7508 63.0709 33.0276 63.7382 33.5197 64.2303C34.0118 64.7224 34.6791 64.9992 35.375 65H55.625C56.3209 64.9992 56.9882 64.7224 57.4803 64.2303C57.9724 63.7382 58.2492 63.0709 58.25 62.375V56.75H56.75V59ZM55.625 63.5H35.375C35.0767 63.4997 34.7908 63.381 34.5799 63.1701C34.369 62.9592 34.2503 62.6733 34.25 62.375V60.5H56.75V62.375C56.7497 62.6733 56.631 62.9592 56.4201 63.1701C56.2092 63.381 55.9233 63.4997 55.625 63.5Z" fill="white"/>
<path d="M42.5 23.75H48.5V25.25H42.5V23.75Z" fill="white"/>
<path d="M66.5 53.5625C66.5 53.6122 66.4802 53.6599 66.4451 53.6951C66.4099 53.7302 66.3622 53.75 66.3125 53.75H24.6875C24.6378 53.75 24.5901 53.7302 24.5549 53.6951C24.5198 53.6599 24.5 53.6122 24.5 53.5625V34.25H23V53.5625C23.0005 54.0099 23.1785 54.4388 23.4948 54.7552C23.8112 55.0715 24.2401 55.2495 24.6875 55.25H66.3125C66.7599 55.2495 67.1888 55.0715 67.5052 54.7552C67.8215 54.4388 67.9995 54.0099 68 53.5625V47.75H66.5V53.5625Z" fill="white"/>
<path d="M66.3125 28.25H24.6875C24.2401 28.2505 23.8112 28.4285 23.4948 28.7448C23.1785 29.0612 23.0005 29.4901 23 29.9375V32.75H24.5V29.9375C24.5 29.8878 24.5198 29.8401 24.5549 29.8049C24.5901 29.7698 24.6378 29.75 24.6875 29.75H66.3125C66.3622 29.75 66.4099 29.7698 66.4451 29.8049C66.4802 29.8401 66.5 29.8878 66.5 29.9375V46.25H68V29.9375C67.9995 29.4901 67.8215 29.0612 67.5052 28.7448C67.1888 28.4285 66.7599 28.2505 66.3125 28.25Z" fill="white"/>
<path d="M50.75 47.75H52.25V50.75H50.75V47.75Z" fill="white"/>
<path d="M47.75 47.75H49.25V50.75H47.75V47.75Z" fill="white"/>
<path d="M53.75 47.75H56.75V50.75H53.75V47.75Z" fill="white"/>
<path d="M58.25 47.75H59.75V50.75H58.25V47.75Z" fill="white"/>
<path d="M61.25 47.75H64.25V50.75H61.25V47.75Z" fill="white"/>
<path d="M47.75 40.25H58.25V41.75H47.75V40.25Z" fill="white"/>
<path d="M59.75 40.25H64.25V41.75H59.75V40.25Z" fill="white"/>
<path d="M53.75 43.25H64.25V44.75H53.75V43.25Z" fill="white"/>
<path d="M47.75 43.25H52.25V44.75H47.75V43.25Z" fill="white"/>
<path d="M47.75 37.25H50.75V38.75H47.75V37.25Z" fill="white"/>
<path d="M52.25 37.25H58.25V38.75H52.25V37.25Z" fill="white"/>
<path d="M56.75 32.75H58.25V34.25H56.75V32.75Z" fill="white"/>
<path d="M59.75 32.75H61.25V34.25H59.75V32.75Z" fill="white"/>
<path d="M62.75 32.75H64.25V34.25H62.75V32.75Z" fill="white"/>
<path d="M47.75 34.25H54.5V35.75H47.75V34.25Z" fill="white"/>
<path d="M44 52.25C44.1989 52.25 44.3897 52.171 44.5303 52.0303C44.671 51.8897 44.75 51.6989 44.75 51.5V32C44.75 31.8011 44.671 31.6103 44.5303 31.4697C44.3897 31.329 44.1989 31.25 44 31.25H27.5C27.3011 31.25 27.1103 31.329 26.9697 31.4697C26.829 31.6103 26.75 31.8011 26.75 32V51.5C26.75 51.6989 26.829 51.8897 26.9697 52.0303C27.1103 52.171 27.3011 52.25 27.5 52.25H44ZM28.25 48.9491C28.2513 48.5295 28.3799 48.1202 28.6189 47.7754C28.8579 47.4305 29.1959 47.1664 29.5883 47.0178L33.2375 45.65L33.65 46.2004C33.8945 46.5264 34.2116 46.791 34.5761 46.9733C34.9406 47.1555 35.3425 47.2504 35.75 47.2504C36.1575 47.2504 36.5594 47.1555 36.9239 46.9733C37.2884 46.791 37.6055 46.5264 37.85 46.2004L38.2625 45.65L41.9114 47.0188C42.3037 47.1672 42.6417 47.4312 42.8807 47.7759C43.1197 48.1205 43.2485 48.5296 43.25 48.9491V50.75H28.25V48.9491ZM37.1642 44.6143L36.65 45.3C36.5452 45.4398 36.4093 45.5532 36.2531 45.6313C36.0969 45.7094 35.9247 45.75 35.75 45.75C35.5753 45.75 35.4031 45.7094 35.2469 45.6313C35.0907 45.5532 34.9548 45.4398 34.85 45.3L34.3358 44.6143L34.7906 43.25H36.7094L37.1642 44.6143ZM38 40.625C37.9997 40.9233 37.881 41.2092 37.6701 41.4201C37.4592 41.631 37.1733 41.7497 36.875 41.75H34.625C34.3267 41.7497 34.0408 41.631 33.8299 41.4201C33.619 41.2092 33.5003 40.9233 33.5 40.625V36.875C33.5003 36.5767 33.619 36.2908 33.8299 36.0799C34.0408 35.869 34.3267 35.7503 34.625 35.75H36.875C37.1733 35.7503 37.4592 35.869 37.6701 36.0799C37.881 36.2908 37.9997 36.5767 38 36.875V40.625ZM43.25 32.75V46.046C42.9995 45.867 42.7267 45.7215 42.4384 45.6133L38.5983 44.1733L38.1754 42.9046C38.5775 42.6751 38.9118 42.3434 39.1444 41.943C39.3771 41.5427 39.4997 41.088 39.5 40.625V36.875C39.4992 36.1791 39.2224 35.5118 38.7303 35.0197C38.2382 34.5276 37.5709 34.2508 36.875 34.25H34.625C33.9291 34.2508 33.2618 34.5276 32.7697 35.0197C32.2776 35.5118 32.0008 36.1791 32 36.875V40.625C32.0003 41.088 32.1229 41.5427 32.3556 41.943C32.5882 42.3434 32.9225 42.6751 33.3246 42.9046L32.9017 44.1733L29.0616 45.6133C28.7733 45.7215 28.5005 45.867 28.25 46.046V32.75H43.25Z" fill="white"/>
</g>
<defs>
<filter id="filter0_d_44_6" x="0" y="0" width="93" height="93" filterUnits="userSpaceOnUse" color-interpolation-filters="sRGB">
<feFlood flood-opacity="0" result="BackgroundImageFix"/>
<feColorMatrix in="SourceAlpha" type="matrix" values="0 0 0 0 0 0 0 0 0 0 0 0 0 0 0 0 0 0 127 0" result="hardAlpha"/>
<feOffset dy="4"/>
<feGaussianBlur stdDeviation="2"/>
<feComposite in2="hardAlpha" operator="out"/>
<feColorMatrix type="matrix" values="0 0 0 0 0 0 0 0 0 0 0 0 0 0 0 0 0 0 0.25 0"/>
<feBlend mode="normal" in2="BackgroundImageFix" result="effect1_dropShadow_44_6"/>
<feBlend mode="normal" in="SourceGraphic" in2="effect1_dropShadow_44_6" result="shape"/>
</filter>
</defs>
</svg>
