<svg width="85" height="85" viewBox="0 0 85 85" fill="none" xmlns="http://www.w3.org/2000/svg">
<circle cx="42.5" cy="42.5" r="42" stroke="white"/>
<path d="M60.2245 42.9099C60.1921 41.8911 60.0684 40.877 59.8556 39.8791L58.3703 40.1796C59.6802 46.3111 57.2075 52.63 52.026 56.3924L50.7431 54.5022C50.3093 53.8685 50.2475 53.0615 50.5791 52.371L50.9022 51.6933C51.0219 51.4402 51.2796 51.2745 51.5669 51.2664L52.6357 51.232C53.5666 51.205 54.3869 50.6293 54.7031 49.7807L55.6489 47.2649C55.7486 47.0018 55.7952 46.722 55.7854 46.4419L55.7336 44.8277C55.7222 44.4383 55.5503 44.0694 55.2561 43.8038L54.3182 42.9529C53.8427 42.5206 53.1341 42.4326 52.5592 42.734L50.7229 43.697C50.513 43.807 50.2621 43.815 50.0452 43.7187L46.9663 42.3488C46.7062 42.2331 46.5367 41.9846 46.5285 41.7077L46.4634 39.6798C46.4374 38.8695 45.7375 38.2343 44.9004 38.2612C44.4818 38.2746 44.1319 37.957 44.1188 37.5519L44.0953 36.8182C44.0879 36.5875 44.1934 36.3665 44.3796 36.2217L46.7486 34.3832L45.8012 33.2385L43.4325 35.077C42.8749 35.5123 42.559 36.1748 42.5794 36.8669L42.6029 37.6006C42.642 38.816 43.6918 39.7688 44.9475 39.7285L45.0126 41.7564C45.0364 42.5908 45.5484 43.3385 46.3327 43.6845L49.4116 45.0544C50.0622 45.3423 50.8149 45.3181 51.4457 44.9891L53.2824 44.0268L54.22 44.8778L54.2718 46.4919C54.2752 46.5851 54.2592 46.6781 54.2261 46.7659L53.2796 49.2821C53.1746 49.5652 52.901 49.7572 52.5909 49.7661L51.522 49.8004C50.66 49.8252 49.8865 50.3223 49.5278 51.0823L49.2043 51.7603C48.6514 52.9109 48.7546 54.2559 49.4769 55.3124L50.775 57.2251C46.1894 59.9768 40.5146 60.4079 35.5518 58.3824L36.4625 57.7514C36.5836 57.6672 36.7276 57.6192 36.8767 57.6133L38.8209 57.5509C39.4245 57.5333 39.9963 57.2826 40.4086 56.8544L42.4856 54.7108C42.9002 54.2851 43.1223 53.7167 43.1017 53.1325L42.9929 49.7441C42.9801 49.3464 42.8562 48.9599 42.6347 48.6253L40.9313 46.0565C40.4962 45.4153 39.7479 45.0388 38.9547 45.0618L36.8278 45.1301C36.0665 45.1538 35.367 45.5445 34.9644 46.171L34.1661 47.4187L32.2978 47.4787C31.4606 47.5056 30.803 48.1844 30.829 48.9947L30.874 50.3961C30.882 50.6451 30.7588 50.8814 30.5467 51.0234L28.2291 52.5756C26.4502 50.0516 25.454 47.0864 25.3584 44.0296C25.3505 43.7838 25.35 43.5393 25.3537 43.2953L26.672 43.253C26.9592 43.2431 27.227 43.3919 27.3627 43.6371L28.3054 45.3302C28.5779 45.8189 29.1135 46.1147 29.6874 46.0938L30.4875 46.0681C30.9639 46.0535 31.4059 45.8234 31.6809 45.4463C31.9563 45.0692 32.0327 44.5895 31.8875 44.1505L30.8171 40.9167L32.313 40.8686C32.8297 40.852 33.3249 40.6658 33.7179 40.3405L36.1305 38.3452C36.9074 37.7006 37.147 36.6351 36.7166 35.7384L35.3248 32.8455C35.1645 32.5129 35.2832 32.1164 35.6025 31.9172L37.4755 30.7475C38.1542 30.3216 38.5509 29.5802 38.518 28.7984L38.471 27.7256C40.9012 27.2029 43.4208 27.2138 45.8438 27.7578L46.1866 26.3307C38.5963 24.624 30.7159 27.7885 26.5906 34.2C22.4652 40.6115 23.0108 48.8456 27.9476 54.676C32.8844 60.5067 41.1156 62.6381 48.4163 59.9767C55.7171 57.3152 60.4656 50.452 60.2245 42.9099V42.9099ZM36.9684 28.1213L37.0013 28.8679C37.013 29.1286 36.8805 29.3756 36.6535 29.517L34.7798 30.6871C33.8262 31.2875 33.472 32.4744 33.949 33.4721L35.3408 36.365C35.4849 36.6637 35.4051 37.0195 35.1457 37.2344L32.7331 39.2293C32.602 39.336 32.4373 39.3966 32.2659 39.4013L30.7699 39.4494C30.2936 39.464 29.8516 39.6944 29.5766 40.0715C29.3012 40.4483 29.2248 40.9284 29.37 41.3673L30.4404 44.6008L29.6403 44.6265L28.6972 42.9369C28.2906 42.2016 27.4867 41.7552 26.6249 41.7857L25.4468 41.8235C26.156 35.4586 30.672 30.0882 36.9684 28.1213V28.1213ZM29.1378 53.7491L31.4079 52.2297C32.0451 51.8047 32.4151 51.095 32.3899 50.3474L32.3449 48.946L34.2132 48.886C34.7202 48.8698 35.1857 48.6092 35.4535 48.1918L36.2548 46.9443C36.3888 46.7356 36.6218 46.6055 36.8749 46.5974L39.0019 46.529C39.2643 46.521 39.5124 46.6446 39.6574 46.8562L41.3572 49.4204C41.4316 49.5317 41.4727 49.6602 41.477 49.7927L41.5858 53.1812C41.5921 53.3761 41.5185 53.5656 41.3804 53.7078L39.3035 55.8514C39.1658 55.9939 38.9751 56.0775 38.7737 56.0836L36.8296 56.146C36.3803 56.1605 35.9448 56.3036 35.5787 56.557L33.9957 57.6539C32.1355 56.6618 30.487 55.3367 29.1378 53.7491V53.7491Z" fill="white"/>
<path d="M20.8851 44.888L19.3765 45.0386C19.428 45.534 19.4978 46.0348 19.5843 46.5262L21.0801 46.277C20.9994 45.8184 20.9332 45.3469 20.8851 44.888V44.888Z" fill="white"/>
<path d="M22.8347 33.9592L21.4663 33.329C21.244 33.7765 21.0348 34.244 20.8449 34.7098L22.2555 35.2469C22.4342 34.8122 22.6297 34.3792 22.8347 33.9592Z" fill="white"/>
<path d="M21.3712 47.6497L19.8968 47.999C20.0188 48.4849 20.1559 48.9711 20.3138 49.4458L21.7592 49.0006C21.6152 48.5563 21.4847 48.1036 21.3712 47.6497Z" fill="white"/>
<path d="M21.0841 39.295L19.5891 39.0493C19.5025 39.5387 19.4312 40.0406 19.379 40.5385L20.8875 40.6848C20.9363 40.2199 21.0024 39.752 21.0841 39.295Z" fill="white"/>
<path d="M24.2607 31.5134L22.9934 30.7082C22.7111 31.1247 22.439 31.5572 22.1852 31.9936L23.5057 32.7128C23.743 32.3046 23.9972 31.9017 24.2607 31.5134Z" fill="white"/>
<path d="M21.7697 36.5695L20.3248 36.1282C20.1679 36.607 20.0271 37.0927 19.9052 37.5768L21.3793 37.9211C21.4915 37.4706 21.6233 37.0164 21.7697 36.5695Z" fill="white"/>
<path d="M20.7898 42.0839L19.2708 42.0373C19.2555 42.5173 19.2555 43.0017 19.2712 43.4907L19.2727 43.5376L20.7871 43.442C20.7725 42.9867 20.7735 42.5341 20.7898 42.0839Z" fill="white"/>
<path d="M22.2426 50.3215L20.8321 50.8617C21.0215 51.3271 21.2283 51.7899 21.4483 52.2372L22.8188 51.6058C22.6134 51.1871 22.4195 50.7558 22.2426 50.3215Z" fill="white"/>
<path d="M26.0143 29.2758L24.8719 28.313C24.5329 28.6911 24.2024 29.0829 23.8913 29.4791L25.0987 30.3659C25.3887 29.9951 25.6974 29.6284 26.0143 29.2758Z" fill="white"/>
<path d="M38.4007 22.5121L38.1415 21.0649C37.636 21.1497 37.1243 21.2532 36.6213 21.3723L36.9787 22.7995C37.4479 22.6869 37.926 22.5905 38.4007 22.5121Z" fill="white"/>
<path d="M41.2807 22.2207L41.2273 20.7536C40.7088 20.7702 40.1879 20.807 39.6791 20.8585L39.8339 22.3223C40.3112 22.2701 40.7933 22.2363 41.2807 22.2207Z" fill="white"/>
<path d="M35.5828 23.1792L35.1259 21.7803C34.6369 21.9308 34.1437 22.1009 33.6628 22.2863L34.2193 23.6504C34.6684 23.4782 35.1268 23.3201 35.5828 23.1792Z" fill="white"/>
<path d="M28.0636 27.2903L27.0675 26.1856C26.679 26.5136 26.297 26.8594 25.9331 27.2124L27.0048 28.2488C27.3447 27.9191 27.7018 27.5964 28.0636 27.2903Z" fill="white"/>
<path d="M32.8921 24.2117L32.2424 22.8871C31.7799 23.101 31.3169 23.3346 30.8658 23.5811L31.6092 24.8586C32.0282 24.6285 32.46 24.4135 32.8921 24.2117Z" fill="white"/>
<path d="M30.3705 25.5903L29.5372 24.3648C29.1059 24.6401 28.68 24.9328 28.2707 25.2346L29.1877 26.4021C29.5703 26.122 29.9675 25.8467 30.3705 25.5903Z" fill="white"/>
<path d="M51.0851 61.3292L51.7349 62.6545C52.2007 62.4405 52.6634 62.2076 53.1123 61.9634L52.3733 60.684C51.9527 60.9119 51.5196 61.1295 51.0851 61.3292V61.3292Z" fill="white"/>
<path d="M57.9739 56.2793L59.1146 57.246C59.4544 56.8679 59.7857 56.4782 60.0982 56.0813L58.893 55.1923C58.6008 55.5631 58.2906 55.9292 57.9739 56.2793V56.2793Z" fill="white"/>
<path d="M55.921 58.2614L56.9153 59.3677C57.3038 59.04 57.6858 58.6953 58.0516 58.3433L56.9828 57.3039C56.6396 57.6348 56.2857 57.9539 55.921 58.2614V58.2614Z" fill="white"/>
<path d="M59.7338 54.0461L60.9991 54.856C61.2832 54.4392 61.5569 54.008 61.8107 53.5724L60.4916 52.8513C60.2534 53.2538 59.9992 53.6571 59.7338 54.0461V54.0461Z" fill="white"/>
<path d="M53.6103 59.9555L54.4381 61.1826C54.868 60.9095 55.2947 60.6182 55.707 60.3163L54.7921 59.1473C54.4107 59.4292 54.0112 59.7013 53.6103 59.9555Z" fill="white"/>
<path d="M48.3921 62.3557L48.8469 63.7557C49.3374 63.6055 49.8306 63.4362 50.3111 63.2533L49.7564 61.8876C49.3067 62.0613 48.8497 62.2162 48.3921 62.3557Z" fill="white"/>
<path d="M63.2293 43.4827L64.7447 43.5323C64.7635 43.0339 64.7647 42.5286 64.7487 42.0303L63.2328 42.079C63.2479 42.5501 63.2466 43.0181 63.2293 43.4827V43.4827Z" fill="white"/>
<path d="M62.928 46.2707L64.4223 46.5164C64.5106 46.0265 64.5823 45.5247 64.6364 45.0274L63.1278 44.8783C63.0776 45.346 63.0104 45.8133 62.928 46.2707V46.2707Z" fill="white"/>
<path d="M62.2364 48.9939L63.68 49.4388C63.8384 48.9607 63.9806 48.4746 64.1033 47.9916L62.6302 47.6441C62.5153 48.0935 62.3828 48.5478 62.2364 48.9939Z" fill="white"/>
<path d="M61.1631 51.6028L62.5309 52.2356C62.754 51.7877 62.9635 51.322 63.1542 50.8568L61.7453 50.3143C61.5674 50.7497 61.3712 51.1827 61.1631 51.6028Z" fill="white"/>
<path d="M23.4829 52.8478L22.1609 53.5702C22.4138 54.0028 22.6851 54.4348 22.9663 54.8507L24.2386 54.0439C23.9727 53.6569 23.7201 53.2544 23.4829 52.8478Z" fill="white"/>
<path d="M28.2336 60.3147C28.6453 60.6177 29.0714 60.9096 29.4996 61.1823L30.3326 59.9532C29.9294 59.6961 29.5351 59.4262 29.1496 59.1438L28.2336 60.3147Z" fill="white"/>
<path d="M33.6248 63.2545C34.1019 63.4368 34.5945 63.6067 35.0895 63.759L35.5507 62.3593C35.0908 62.2167 34.6304 62.059 34.1855 61.8889L33.6248 63.2545Z" fill="white"/>
<path d="M30.8227 61.9617C31.2737 62.2079 31.7372 62.4405 32.2008 62.6519L32.8555 61.3256C32.4227 61.1265 31.9907 60.909 31.5692 60.6794L30.8227 61.9617Z" fill="white"/>
<path d="M25.894 58.3386C26.2596 58.6941 26.6411 59.0379 27.0261 59.364L28.0257 58.2569C27.6654 57.9525 27.3091 57.6305 26.9676 57.3001L25.894 58.3386Z" fill="white"/>
<path d="M25.0697 55.1894L23.8601 56.077C24.171 56.4741 24.5 56.8644 24.8381 57.2415L25.9792 56.2743C25.6646 55.9244 25.3594 55.5599 25.0697 55.1894Z" fill="white"/>
<path d="M45.5762 63.017L45.8283 64.4638C46.335 64.3797 46.8467 64.2783 47.3497 64.1599L46.996 62.7333C46.5246 62.8431 46.049 62.9387 45.5762 63.017V63.017Z" fill="white"/>
<path d="M39.6416 64.6696C40.1507 64.7196 40.6716 64.7534 41.19 64.7669L41.2439 63.2964C40.7584 63.2811 40.2724 63.249 39.7993 63.2025L39.6416 64.6696Z" fill="white"/>
<path d="M42.6923 63.3019L42.7394 64.7692C43.2587 64.7526 43.7796 64.7183 44.2888 64.6675L44.1377 63.2035C43.6614 63.2536 43.1797 63.2863 42.6923 63.3019Z" fill="white"/>
<path d="M36.5841 64.1627C37.0866 64.2807 37.5982 64.3833 38.104 64.4671L38.3609 63.0202C37.8887 62.9421 37.4114 62.8463 36.9436 62.7365L36.5841 64.1627Z" fill="white"/>
<path d="M47.7175 26.7426L47.512 33.9318C47.4823 34.9799 47.9167 35.9894 48.7059 36.7063L50.2219 38.0809L52.6816 31.2549L55.4711 33.7863L55.5751 37.0247C55.5927 37.6076 55.8505 38.1594 56.2912 38.5562L57.6463 39.7871L59.1707 37.1419L59.5683 37.5021C60.1577 38.0562 61.0104 38.2583 61.7993 38.0315C62.5878 37.8046 63.1891 37.1836 63.3728 36.4074C63.5561 35.6313 63.2925 34.8203 62.6838 34.2869L62.2869 33.9264L64.9168 32.2838L63.5616 31.0522C63.1231 30.6514 62.5368 30.4378 61.9332 30.459L58.5861 30.5665L55.8014 28.0357L62.6856 25.2184L61.1661 23.8418C60.3773 23.1248 59.3082 22.7704 58.2299 22.8674L50.8304 23.5275L48.3164 21.2447C47.3896 20.4425 45.9736 20.488 45.1003 21.348C44.2396 22.2363 44.2844 23.6298 45.2002 24.461L47.7175 26.7426ZM49.5647 35.4505C49.2039 35.0376 49.0129 34.5101 49.0277 33.9689L49.196 28.0882L51.4749 30.1566L49.5647 35.4505ZM57.2714 37.4231C57.1602 37.2962 57.0966 37.1365 57.0909 36.9699L57.0341 35.2013L58.0334 36.107L57.2714 37.4231ZM61.9795 31.9242C62.1516 31.919 62.3204 31.9703 62.4584 32.0695L61.1482 32.8922L60.1499 31.9872L61.9795 31.9242ZM58.3654 24.329C58.9225 24.2792 59.479 24.4302 59.9276 24.7526L54.5888 26.9375L52.3098 24.8692L58.3654 24.329ZM46.2061 22.3517C46.4927 22.0563 46.9719 22.041 47.2772 22.3173L61.6452 35.3581C61.9498 35.6348 61.9647 36.0987 61.6785 36.3944C61.3877 36.6817 60.9154 36.6968 60.6067 36.4288L46.2394 23.3884C45.9349 23.1113 45.92 22.6478 46.2061 22.3517Z" fill="white"/>
</svg>
